<svg xmlns="http://www.w3.org/2000/svg" width="200" height="150" viewBox="0 0 200 150">
  <g fill="none" fill-rule="evenodd">
    <path fill="#FFFFFF" d="M100,20 C130,20 155,45 155,75 C155,105 130,130 100,130 C70,130 45,105 45,75 C45,45 70,20 100,20 Z"/>
    <path fill="#FFFFFF" d="M160,90 L180,90 C185,90 190,95 190,100 L190,120 C190,125 185,130 180,130 L160,130 C155,130 150,125 150,120 L150,100 C150,95 155,90 160,90 Z"/>
    <path stroke="#FFFFFF" stroke-width="3" d="M150,110 L120,80"/>
    <path fill="#FFFFFF" d="M80,50 L120,50 C125,50 130,55 130,60 L130,90 C130,95 125,100 120,100 L80,100 C75,100 70,95 70,90 L70,60 C70,55 75,50 80,50 Z"/>
    <path fill="#EA1D2C" d="M85,60 L115,60 C117,60 119,62 119,64 L119,66 C119,68 117,70 115,70 L85,70 C83,70 81,68 81,66 L81,64 C81,62 83,60 85,60 Z"/>
    <path fill="#EA1D2C" d="M85,80 L105,80 C107,80 109,82 109,84 L109,86 C109,88 107,90 105,90 L85,90 C83,90 81,88 81,86 L81,84 C81,82 83,80 85,80 Z"/>
    <circle fill="#EA1D2C" cx="170" cy="130" r="15"/>
    <circle fill="#FFFFFF" cx="170" cy="130" r="5"/>
    <circle fill="#EA1D2C" cx="90" cy="130" r="15"/>
    <circle fill="#FFFFFF" cx="90" cy="130" r="5"/>
  </g>
</svg>