<svg xmlns="http://www.w3.org/2000/svg" width="120" height="40" viewBox="0 0 120 40">
  <g fill="none" fill-rule="evenodd">
    <path fill="#EA1D2C" d="M48.5,16.5 L48.5,28.5 L44.5,28.5 L44.5,16.5 L48.5,16.5 Z M48.5,11.5 L48.5,15 L44.5,15 L44.5,11.5 L48.5,11.5 Z M38.5,16.5 L38.5,17.5 C39.5,16.7 40.8,16.2 42.2,16.2 C45.5,16.2 48.2,18.9 48.2,22.2 C48.2,25.5 45.5,28.2 42.2,28.2 C40.8,28.2 39.5,27.7 38.5,26.9 L38.5,33.5 L34.5,33.5 L34.5,16.5 L38.5,16.5 Z M41,24.5 C42.4,24.5 43.5,23.4 43.5,22 C43.5,20.6 42.4,19.5 41,19.5 C39.6,19.5 38.5,20.6 38.5,22 C38.5,23.4 39.6,24.5 41,24.5 Z M28.5,16.5 L28.5,28.5 L24.5,28.5 L24.5,16.5 L28.5,16.5 Z M28.5,11.5 L28.5,15 L24.5,15 L24.5,11.5 L28.5,11.5 Z M18.5,16.5 L18.5,17.5 C19.5,16.7 20.8,16.2 22.2,16.2 C25.5,16.2 28.2,18.9 28.2,22.2 C28.2,25.5 25.5,28.2 22.2,28.2 C20.8,28.2 19.5,27.7 18.5,26.9 L18.5,28.5 L14.5,28.5 L14.5,16.5 L18.5,16.5 Z M21,24.5 C22.4,24.5 23.5,23.4 23.5,22 C23.5,20.6 22.4,19.5 21,19.5 C19.6,19.5 18.5,20.6 18.5,22 C18.5,23.4 19.6,24.5 21,24.5 Z M8.5,19.5 L8.5,28.5 L4.5,28.5 L4.5,19.5 L2.5,19.5 L2.5,16.5 L4.5,16.5 L4.5,13.5 C4.5,10.5 6.5,8.5 9.5,8.5 L11.5,8.5 L11.5,12.5 L10,12.5 C9.2,12.5 8.5,13.2 8.5,14 L8.5,16.5 L11.5,16.5 L11.5,19.5 L8.5,19.5 Z" />
    <path fill="#EA1D2C" d="M60,16.5 L60,28.5 L56,28.5 L56,16.5 L60,16.5 Z M60,11.5 L60,15 L56,15 L56,11.5 L60,11.5 Z M70,16.5 L70,28.5 L66,28.5 L66,27.5 C65,28.3 63.7,28.8 62.3,28.8 C59,28.8 56.3,26.1 56.3,22.8 C56.3,19.5 59,16.8 62.3,16.8 C63.7,16.8 65,17.3 66,18.1 L66,16.5 L70,16.5 Z M63.5,24.5 C64.9,24.5 66,23.4 66,22 C66,20.6 64.9,19.5 63.5,19.5 C62.1,19.5 61,20.6 61,22 C61,23.4 62.1,24.5 63.5,24.5 Z M80,16.5 L80,28.5 L76,28.5 L76,27.5 C75,28.3 73.7,28.8 72.3,28.8 C69,28.8 66.3,26.1 66.3,22.8 C66.3,19.5 69,16.8 72.3,16.8 C73.7,16.8 75,17.3 76,18.1 L76,16.5 L80,16.5 Z M73.5,24.5 C74.9,24.5 76,23.4 76,22 C76,20.6 74.9,19.5 73.5,19.5 C72.1,19.5 71,20.6 71,22 C71,23.4 72.1,24.5 73.5,24.5 Z M90,16.5 L90,28.5 L86,28.5 L86,27.5 C85,28.3 83.7,28.8 82.3,28.8 C79,28.8 76.3,26.1 76.3,22.8 C76.3,19.5 79,16.8 82.3,16.8 C83.7,16.8 85,17.3 86,18.1 L86,16.5 L90,16.5 Z M83.5,24.5 C84.9,24.5 86,23.4 86,22 C86,20.6 84.9,19.5 83.5,19.5 C82.1,19.5 81,20.6 81,22 C81,23.4 82.1,24.5 83.5,24.5 Z" />
  </g>
</svg>