<svg xmlns="http://www.w3.org/2000/svg" width="800" height="600" viewBox="0 0 800 600">
  <!-- Fundo -->
  <rect width="800" height="600" fill="#f5f5f5"/>
  
  <!-- Cabeçalho -->
  <rect width="800" height="70" fill="#EA1D2C"/>
  <text x="100" y="45" font-family="Arial" font-size="24" fill="white" font-weight="bold">iFood</text>
  <rect x="500" y="20" width="200" height="30" rx="15" fill="white"/>
  <text x="520" y="40" font-family="Arial" font-size="14" fill="#999">Buscar restaurantes...</text>
  
  <!-- Categorias -->
  <text x="50" y="100" font-family="Arial" font-size="18" fill="#333" font-weight="bold">Categorias</text>
  
  <!-- Círculos de categorias -->
  <circle cx="100" cy="150" r="40" fill="#f0f0f0" stroke="#ddd"/>
  <text x="100" y="155" font-family="Arial" font-size="12" fill="#333" text-anchor="middle">Pizza</text>
  
  <circle cx="200" cy="150" r="40" fill="#f0f0f0" stroke="#ddd"/>
  <text x="200" y="155" font-family="Arial" font-size="12" fill="#333" text-anchor="middle">Hambúrguer</text>
  
  <circle cx="300" cy="150" r="40" fill="#f0f0f0" stroke="#ddd"/>
  <text x="300" y="155" font-family="Arial" font-size="12" fill="#333" text-anchor="middle">Japonesa</text>
  
  <circle cx="400" cy="150" r="40" fill="#f0f0f0" stroke="#ddd"/>
  <text x="400" y="155" font-family="Arial" font-size="12" fill="#333" text-anchor="middle">Brasileira</text>
  
  <circle cx="500" cy="150" r="40" fill="#f0f0f0" stroke="#ddd"/>
  <text x="500" y="155" font-family="Arial" font-size="12" fill="#333" text-anchor="middle">Saudável</text>
  
  <!-- Restaurantes populares -->
  <text x="50" y="230" font-family="Arial" font-size="18" fill="#333" font-weight="bold">Restaurantes Populares</text>
  
  <!-- Restaurante 1 -->
  <rect x="50" y="250" width="220" height="150" rx="5" fill="white" stroke="#ddd"/>
  <rect x="50" y="250" width="220" height="100" fill="#eee" rx="5 5 0 0"/>
  <text x="160" y="300" font-family="Arial" font-size="12" fill="#999" text-anchor="middle">Imagem do Restaurante</text>
  <text x="70" y="370" font-family="Arial" font-size="16" fill="#333" font-weight="bold">Pizzaria Napolitana</text>
  <text x="70" y="390" font-family="Arial" font-size="12" fill="#666">Pizza • 30-45 min • ★★★★☆</text>
  
  <!-- Restaurante 2 -->
  <rect x="290" y="250" width="220" height="150" rx="5" fill="white" stroke="#ddd"/>
  <rect x="290" y="250" width="220" height="100" fill="#eee" rx="5 5 0 0"/>
  <text x="400" y="300" font-family="Arial" font-size="12" fill="#999" text-anchor="middle">Imagem do Restaurante</text>
  <text x="310" y="370" font-family="Arial" font-size="16" fill="#333" font-weight="bold">Burger King</text>
  <text x="310" y="390" font-family="Arial" font-size="12" fill="#666">Hambúrguer • 20-35 min • ★★★★☆</text>
  
  <!-- Restaurante 3 -->
  <rect x="530" y="250" width="220" height="150" rx="5" fill="white" stroke="#ddd"/>
  <rect x="530" y="250" width="220" height="100" fill="#eee" rx="5 5 0 0"/>
  <text x="640" y="300" font-family="Arial" font-size="12" fill="#999" text-anchor="middle">Imagem do Restaurante</text>
  <text x="550" y="370" font-family="Arial" font-size="16" fill="#333" font-weight="bold">Sushi Express</text>
  <text x="550" y="390" font-family="Arial" font-size="12" fill="#666">Japonesa • 40-55 min • ★★★★★</text>
  
  <!-- Restaurante 4 -->
  <rect x="50" y="420" width="220" height="150" rx="5" fill="white" stroke="#ddd"/>
  <rect x="50" y="420" width="220" height="100" fill="#eee" rx="5 5 0 0"/>
  <text x="160" y="470" font-family="Arial" font-size="12" fill="#999" text-anchor="middle">Imagem do Restaurante</text>
  <text x="70" y="540" font-family="Arial" font-size="16" fill="#333" font-weight="bold">Sabor Mineiro</text>
  <text x="70" y="560" font-family="Arial" font-size="12" fill="#666">Brasileira • 25-40 min • ★★★★☆</text>
  
  <!-- Restaurante 5 -->
  <rect x="290" y="420" width="220" height="150" rx="5" fill="white" stroke="#ddd"/>
  <rect x="290" y="420" width="220" height="100" fill="#eee" rx="5 5 0 0"/>
  <text x="400" y="470" font-family="Arial" font-size="12" fill="#999" text-anchor="middle">Imagem do Restaurante</text>
  <text x="310" y="540" font-family="Arial" font-size="16" fill="#333" font-weight="bold">Salada Express</text>
  <text x="310" y="560" font-family="Arial" font-size="12" fill="#666">Saudável • 15-30 min • ★★★★☆</text>
  
  <!-- Restaurante 6 -->
  <rect x="530" y="420" width="220" height="150" rx="5" fill="white" stroke="#ddd"/>
  <rect x="530" y="420" width="220" height="100" fill="#eee" rx="5 5 0 0"/>
  <text x="640" y="470" font-family="Arial" font-size="12" fill="#999" text-anchor="middle">Imagem do Restaurante</text>
  <text x="550" y="540" font-family="Arial" font-size="16" fill="#333" font-weight="bold">China in Box</text>
  <text x="550" y="560" font-family="Arial" font-size="12" fill="#666">Chinesa • 30-45 min • ★★★★☆</text>
</svg>